<?xml version="1.0" encoding="UTF-8"?>
<!DOCTYPE svg PUBLIC "-//W3C//DTD SVG 1.1//EN" "http://www.w3.org/Graphics/SVG/1.1/DTD/svg11.dtd">
<!-- Creator: CorelDRAW X7 -->
<svg xmlns="http://www.w3.org/2000/svg" xml:space="preserve" width="280.68mm" height="68.5833mm" version="1.1" style="shape-rendering:geometricPrecision; text-rendering:geometricPrecision; image-rendering:optimizeQuality; fill-rule:evenodd; clip-rule:evenodd"
viewBox="0 0 28537 6973"
 xmlns:xlink="http://www.w3.org/1999/xlink">
 <defs>
  <style type="text/css">
   <![CDATA[
    .fil0 {fill:#1F4094}
    .fil1 {fill:#FDD835}
   ]]>
  </style>
 </defs>
 <g id="Слой_x0020_1">
  <metadata id="CorelCorpID_0Corel-Layer"/>
  <g id="Layer_x0020_1">
   <path class="fil0" d="M5165 1872l773 0 295 2459 295 -2459 770 0 0 4042 -479 0 0 -3082 -370 3082 -435 0 -369 -3082 0 3082 -480 0 0 -4042zm2432 2024l0 0c0,-660 86,-1174 259,-1541 173,-368 413,-551 721,-551 316,0 559,180 730,541 171,361 256,867 256,1518 0,472 -37,859 -112,1161 -74,302 -183,537 -323,705 -142,169 -317,253 -528,253 -214,0 -391,-73 -531,-218 -140,-146 -254,-375 -341,-689 -87,-314 -131,-707 -131,-1179zm586 2l0 0c0,408 35,701 106,879 72,178 169,267 292,267 126,0 224,-87 293,-261 69,-175 103,-488 103,-940 0,-380 -36,-658 -108,-833 -72,-176 -170,-263 -293,-263 -119,0 -214,89 -286,267 -72,178 -107,473 -107,884zm1698 -2026l0 0 585 0 0 1411 642 0 0 -1411 588 0 0 4042 -588 0 0 -1637 -642 0 0 1637 -585 0 0 -4042zm2130 2024l0 0c0,-660 86,-1174 259,-1541 173,-368 413,-551 721,-551 316,0 559,180 730,541 171,361 256,867 256,1518 0,472 -37,859 -112,1161 -74,302 -182,537 -323,705 -142,169 -317,253 -528,253 -214,0 -391,-73 -531,-218 -140,-146 -254,-375 -341,-689 -87,-314 -131,-707 -131,-1179zm586 2l0 0c0,408 35,701 107,879 71,178 168,267 291,267 126,0 224,-87 293,-261 69,-175 104,-488 104,-940 0,-380 -37,-658 -109,-833 -72,-176 -170,-263 -293,-263 -119,0 -214,89 -286,267 -72,178 -107,473 -107,884zm3439 2016l0 0 -586 0 0 -3049 -458 0 0 1243c0,511 -13,887 -38,1127 -26,239 -85,415 -179,527 -94,112 -245,169 -454,169 -63,0 -136,-15 -219,-44l0 -820 87 0c80,0 136,-38 168,-112 33,-74 49,-211 49,-409l0 -2674 1630 0 0 4042zm411 -4042l0 0 588 0 0 4042 -588 0 0 -4042zm875 0l0 0 1783 0 0 999 -599 0 0 3043 -586 0 0 -3043 -598 0 0 -999zm1910 2134l0 0 766 0 0 869 -766 0 0 -869zm1606 -576l0 0 313 0c287,0 500,108 639,323 139,217 208,553 208,1008 0,374 -63,659 -190,856 -128,198 -310,297 -549,297l-1007 0 0 -4042 1598 0 0 818 -1012 0 0 740zm0 1614l0 0 300 0c183,0 275,-141 275,-424 0,-247 -92,-372 -275,-372l-300 0 0 796zm1470 -3172l0 0 975 0c212,0 371,107 477,322 106,216 159,523 159,921 0,408 -58,728 -173,957 -116,231 -292,346 -528,346l-322 0 0 1496 -588 0 0 -4042zm588 1727l0 0 145 0c113,0 193,-42 239,-126 46,-84 69,-191 69,-322 0,-127 -20,-234 -60,-322 -40,-89 -115,-133 -225,-133l-168 0 0 903zm1150 -1727l0 0 636 0 264 1665 258 -1665 596 0 -621 3122c-51,251 -96,439 -134,562 -38,125 -94,226 -168,306 -75,80 -177,120 -308,120 -69,0 -187,-21 -356,-63l0 -835c100,23 172,34 218,34 135,0 218,-107 247,-323l-632 -2923zm3683 4042l0 0 -660 0 -231 -1041c-53,-247 -95,-402 -125,-464 -29,-62 -71,-93 -123,-93l0 1598 -586 0 0 -4042 586 0 0 1552c50,-6 90,-44 118,-116 29,-71 73,-277 134,-617 44,-251 88,-432 133,-541 45,-109 117,-187 218,-235 101,-48 259,-72 475,-72l0 853 -30 0c-100,0 -174,40 -222,121 -48,81 -88,212 -119,394 -31,181 -65,316 -100,405 -36,89 -85,161 -147,214 84,59 158,161 221,305 63,144 130,369 200,674l258 1105z"/>
   <path class="fil1" d="M3169 216c-22,44 -19,31 -24,97l-193 0c12,136 75,98 -46,145 -77,29 -5,-25 -82,39 -33,29 -43,49 -64,80 -68,0 -118,-3 -184,9l-152 64c-15,15 -8,20 -49,47 -26,18 -99,40 -104,75l32 70c-103,8 -93,13 -96,120 95,25 3,-23 138,150 53,69 54,123 54,235 61,32 93,43 155,86 84,58 54,73 158,82 4,190 51,52 161,296 61,134 1,152 200,257l-24 169c28,-15 48,-22 80,-42l165 -72c88,-26 206,-42 290,-120 112,-105 153,-148 330,-55 146,-275 179,-192 385,-192 30,0 58,-52 74,-70l-8 -164c-26,-64 -8,3 -18,-79 -18,-142 -20,-149 -121,-216 118,-246 -103,-307 -135,-346 -56,-70 3,-50 -81,-111 206,-308 -165,-470 -172,-478 -62,-72 39,-138 -126,-210 -63,-28 -13,9 -66,-31 -4,-3 -8,-8 -12,-11 -3,-4 -8,-10 -11,-13l-22 -27c-44,165 -218,216 -432,216l0 0z"/>
   <path class="fil0" d="M957 1948c92,-8 81,-2 104,-89 10,-41 16,-103 16,-175 111,-26 70,-19 134,-83 187,-184 247,-105 299,-302l192 0c9,-103 40,-114 48,-217 73,20 53,0 73,72l48 0c25,-66 -3,-28 54,-37 41,-6 -17,28 66,-11 -7,80 -100,146 168,169l0 216c442,296 265,275 347,399 49,73 31,-10 95,97 117,194 33,298 255,298l-72 24 0 72c124,14 44,-28 72,48 -328,-7 -68,15 -322,183 -138,90 -51,110 -128,160 -19,13 -186,33 -223,42 0,160 21,168 -143,169l-49 95c-106,-77 8,-72 -192,-72 -56,-236 -39,-135 -121,-240 -11,-13 -37,-56 -48,-72 -196,16 -102,46 -197,-116 -244,-419 -243,-170 -345,-352 -159,-287 -61,14 -180,-182l49 -96z"/>
   <path class="fil0" d="M303 2857l0 0c36,-66 216,-277 240,-385 44,-196 -25,-22 102,-211 140,37 19,83 144,0 20,56 9,33 55,65 304,214 91,86 237,220l123 117c187,214 80,18 188,149 85,105 5,86 167,170l59 37c3,3 8,9 11,13 56,72 -9,84 121,95l-48 72c72,26 64,16 72,120 -163,38 -78,52 -156,132 -53,54 -89,20 -166,98 -191,195 -165,236 -206,323 -242,-5 -221,-146 -262,-195 0,-1 -131,-105 -134,-107 -126,-74 -226,-86 -306,-150l-332 -269c8,-91 61,-204 91,-294z"/>
   <path class="fil0" d="M2694 2746l0 0c250,0 321,-84 481,-169l32 54c77,213 56,80 136,211 37,61 50,90 96,145 150,184 16,-98 200,281 53,109 53,63 116,124 81,78 28,98 106,168l20 18c20,22 28,42 39,58 -149,40 -86,124 -514,279l-227 88c-220,74 -94,16 -118,-48 -29,-76 -196,-145 -264,-182 -80,-43 -198,-229 -212,-245 -78,-87 -165,-78 -265,-265 -135,-255 31,-205 134,-205 23,-35 27,-48 68,-76 39,-27 27,-11 47,-25 33,-22 8,2 39,-33 40,-44 72,-118 86,-178z"/>
   <path class="fil0" d="M2183 5772l0 0c125,66 311,100 437,140l100 44c61,38 4,1 40,33 -61,-2 -249,-30 -290,-47 -140,-61 -73,-74 -287,-74 40,110 18,-19 66,103 86,218 89,76 102,234l97 0 -12 15 281 34c229,7 42,39 428,71 -13,-156 -1,-65 -96,-264 -117,0 -125,11 -193,-48 178,14 203,100 217,-120 5,-74 22,-116 48,-169 -99,-23 -136,-31 -217,-72 -85,-44 -115,-46 -216,-72 -49,-12 -178,-45 -224,-64 -69,-30 -127,-105 -209,-105 -102,0 -45,49 -48,143 -1,83 -24,98 -24,218z"/>
   <path class="fil0" d="M2400 6269l-4 5c174,43 64,35 305,219l711 45c-6,-6 -28,-22 -83,-59l-43 -31c-52,-47 -35,-52 -64,-76 -25,-20 -11,-9 -33,-14 -75,-17 -198,9 -309,-32 -63,-23 -100,-37 -156,-44l-324 -13z"/>
   <path class="fil0" d="M3061 6555c3,4 7,7 12,11 -63,0 -90,-7 -116,-13l-180 -4c165,117 142,-38 247,161 101,2 130,22 251,24l455 -19c-7,-5 -14,-10 -23,-15 -67,-44 -19,-15 -96,-48 -45,-20 -57,-30 -98,-46 -63,-23 -69,-3 -105,-36 -3,-3 -6,-5 -8,-7l-339 -8z"/>
   <path class="fil0" d="M3685 6878c374,60 435,57 783,72 108,4 92,31 185,20 62,-7 93,-19 198,-19 -29,-90 17,-5 -279,-58 -45,-8 -130,-31 -154,-30 -50,4 -48,31 -143,39 -17,-63 1,-19 -25,-72 -73,35 -88,29 -174,-1l-391 49z"/>
   <path class="fil0" d="M3481 6758l0 0 0 24 -144 0c9,-12 16,-22 22,-29l-65 4c8,39 -1,17 43,49 154,0 189,32 275,56l432 -44c-21,-7 -44,-14 -71,-22 -1,-1 -41,-18 -51,-22 -113,-36 -74,13 -171,-46l-333 21c14,5 33,9 63,9z"/>
   <path class="fil0" d="M426 3571c174,-27 187,64 272,151 81,84 29,43 134,83 51,19 102,45 91,118l8 7 74 -10c58,80 26,27 120,72 -3,140 -7,57 -51,165l-94 293c-35,101 -24,36 1,144 -28,17 -48,26 -72,48l-354 -199c-126,-97 -86,-30 -188,-76 -56,-25 -32,-41 -105,-112 -58,-58 -68,17 -34,-62 -2,-1 -6,-4 -8,-5 -96,15 -31,-1 -152,-3 -1,-8 -74,-226 -68,-307 5,-61 16,5 17,-101 1,-65 -19,-94 17,-227 21,-77 40,-132 58,-207 103,-9 43,3 117,-47l27 95 144 0 32 169 14 11z"/>
   <path class="fil0" d="M2592 4738l0 0c58,-16 77,-32 124,-68l260 -293c183,43 147,-8 250,135l362 312c151,147 177,81 254,227 -40,4 -10,-7 -41,6 -5,2 -13,5 -17,8 -61,34 -81,84 -86,154 -127,10 -35,31 -190,52 -199,27 -167,-41 -276,-115 -249,-168 -357,-171 -536,-258 -87,-42 -20,-3 -54,-44 -38,-47 -37,-85 -50,-116z"/>
   <path class="fil0" d="M2255 5195l0 0c0,-53 57,-94 120,-193 98,-150 65,-118 169,-120 24,91 -1,43 201,160 120,70 75,-18 272,88 67,36 162,97 218,144 160,138 146,-42 150,161 -117,3 -68,-26 -153,111l-111 130c-53,-28 -55,-33 -122,-47 -50,-11 -87,-11 -132,-36 -82,-45 -76,-83 -197,-115 -126,-34 -131,-20 -239,-98 -117,-83 -176,-6 -176,-185z"/>
   <path class="fil0" d="M1558 5171c115,-35 182,6 265,48 209,105 225,70 181,351 -18,114 68,81 -13,178l-448 -153c-96,-32 -148,-51 -226,-87 -189,-87 -46,-98 -168,-73 44,-95 -32,-147 -44,-245 -14,-116 24,-64 13,-137 -6,-39 -195,-232 276,-7l99 46c29,15 50,24 65,30 10,3 10,3 10,13 0,8 -8,18 -10,36z"/>
   <path class="fil0" d="M1438 4016l0 0c85,35 18,-16 72,97 219,0 126,6 192,144 34,16 57,18 88,33 79,38 67,82 249,183 130,73 24,-17 278,155 42,28 43,36 82,62l173 -236c105,-105 221,-13 236,-197l72 0c-28,-62 -9,-54 -16,-75 -41,-134 -223,-189 -224,-190 -75,-155 6,-53 -130,-158 -111,-86 -18,-74 -150,-163 -16,-11 -26,-18 -43,-29 -38,-24 -2,-9 -44,-28 -133,-60 -242,-50 -210,-199 -182,42 -328,174 -412,333 -98,183 -199,101 -213,268z"/>
   <path class="fil0" d="M1729 4473c-7,-123 19,9 -8,-66 -36,-99 -117,-90 -159,-106l-196 -140c-20,38 -45,81 -62,130 -37,108 -60,203 -124,285 -42,54 -49,82 -79,138 4,4 9,7 11,14 2,8 9,12 11,14 88,86 -75,-31 21,23 49,28 -10,16 78,-3 -55,118 21,69 264,216 54,33 62,45 96,97 214,0 253,79 382,124 200,69 138,-95 138,-96 11,-73 45,-54 70,-112 34,-80 -19,-52 40,-130 2,-2 41,-32 49,-36 3,-1 10,-3 12,-4l30 -11c-56,-106 -38,-8 -61,-87 -13,-44 37,-13 -32,-58l-411 -192c-35,-41 9,-14 -70,0z"/>
   <path class="fil0" d="M27825 1841l304 0 0 117 -102 0 0 354 -100 0 0 -354 -102 0 0 -117zm348 0l0 0 132 0 50 287 51 -287 131 0 0 471 -82 0 0 -359 -63 359 -74 0 -63 -359 0 359 -82 0 0 -471z"/>
  </g>
 </g>
</svg>
