<?xml version="1.0" encoding="UTF-8"?>
<!DOCTYPE svg PUBLIC "-//W3C//DTD SVG 1.1//EN" "http://www.w3.org/Graphics/SVG/1.1/DTD/svg11.dtd">
<!-- Creator: CorelDRAW X7 -->
<svg xmlns="http://www.w3.org/2000/svg" xml:space="preserve" width="19.231mm" height="85.9209mm" version="1.1" style="shape-rendering:geometricPrecision; text-rendering:geometricPrecision; image-rendering:optimizeQuality; fill-rule:evenodd; clip-rule:evenodd"
viewBox="0 0 4442 19846"
 xmlns:xlink="http://www.w3.org/1999/xlink">
 <defs>
  <style type="text/css">
   <![CDATA[
    .fil0 {fill:#1F4094;fill-rule:nonzero}
   ]]>
  </style>
 </defs>
 <g id="Слой_x0020_1">
  <metadata id="CorelCorpID_0Corel-Layer"/>
  <path class="fil0" d="M104 19171l0 -572c0,-104 0,-208 0,-261 0,-51 53,-104 53,-155 51,-53 51,-104 104,-104 51,-53 104,-53 155,-53 53,0 103,0 157,53 50,51 103,104 103,155 0,-104 51,-155 104,-208 51,-50 155,-50 208,-50 51,0 104,0 208,50 51,53 104,53 155,104 53,53 53,104 53,208 0,53 0,157 0,365l0 466 -1404 0 104 2 0 0zm208 -260l311 0 0 -208c0,-104 0,-157 0,-208 0,-53 0,-104 -50,-104 -54,-53 -54,-53 -104,-53 -53,0 -104,0 -104,53 -53,0 -53,51 -53,104 0,51 0,104 0,259l0 157 0 0zm572 0l363 0 0 -261c0,-104 0,-155 0,-208 0,-51 -51,-51 -51,-104 -53,-51 -53,-51 -104,-51 -53,0 -53,0 -104,51 -53,0 -53,53 -53,104 0,53 0,104 0,261l0 208 -51 0zm-780 -1143l0 -261 935 0 -935 -570 0 -261 1404 0 0 261 -935 0 935 570 0 261 -1404 0zm1404 -1404l-1404 0 0 -466c0,-157 0,-261 0,-312 0,-104 53,-157 157,-208 51,-53 155,-104 258,-104 104,0 157,0 208,51 53,53 104,53 157,104 51,53 51,104 51,157 0,51 0,155 0,312l0 207 519 0 0 259 54 0 0 0zm-1143 -258l415 0 0 -157c0,-104 0,-208 0,-208 0,-51 -53,-51 -53,-104 -51,0 -51,-51 -104,-51 -50,0 -104,0 -104,51 -50,53 -50,53 -50,104 0,53 0,104 0,208l0 157 -104 0zm466 -936c-155,0 -258,0 -362,-53 -53,-50 -157,-50 -208,-154 -53,-53 -104,-104 -104,-157 -53,-104 -53,-208 -53,-312 0,-208 53,-362 208,-519 104,-104 311,-208 519,-208 208,0 416,53 520,208 103,103 207,311 207,468 0,208 -50,363 -207,520 -104,104 -312,207 -520,207zm0 -311c157,0 261,-53 365,-104 104,-53 104,-157 104,-261 0,-104 -53,-208 -104,-259 -104,-53 -208,-103 -365,-103 -155,0 -258,50 -362,103 -104,51 -104,155 -104,259 0,104 51,208 104,261 104,51 207,104 362,104zm-674 -1300l0 -1039 259 0 0 780 311 0 0 -364c0,-104 0,-208 53,-259 0,-53 51,-104 155,-157 53,-51 157,-51 261,-51 104,0 155,0 258,51 54,53 104,104 157,157 0,51 51,155 51,259l0 676 -1401 0 -104 -53 0 0zm1143 -259l0 -260c0,-104 0,-155 0,-208 0,-51 -53,-51 -53,-104 -51,-51 -51,-51 -104,-51 -51,0 -104,0 -155,51 -53,53 -53,104 -53,261l0 311 365 0zm-1143 -1142l0 -261 935 0 -935 -573 0 -258 1401 0 0 258 -935 0 935 573 0 261 -1401 0zm362 -2131l-50 258c-208,-51 -365,-208 -365,-519 0,-155 53,-312 104,-363 53,-104 157,-104 261,-104 50,0 104,0 154,51 53,53 104,104 157,157 51,-104 51,-157 155,-208 53,-53 157,-53 208,-53 104,0 208,53 311,157 54,104 104,208 104,416 0,155 0,258 -50,362 -54,104 -157,157 -261,208l-104 -258c104,-54 157,-54 157,-104 0,-53 51,-104 51,-157 0,-104 0,-155 -51,-208 -53,-51 -104,-51 -157,-51 -51,0 -104,0 -155,51 -53,53 -53,104 -53,208l0 53 -208 0 0 -53c0,-104 0,-155 -51,-208 -53,-51 -103,-51 -157,-51 -50,0 -103,0 -103,51 -51,53 -51,104 -51,157 0,104 51,208 154,208l0 0zm-362 -1559l0 -1039 259 0 0 778 311 0 0 -362c0,-104 0,-208 53,-261 0,-51 51,-104 155,-155 53,-53 157,-53 261,-53 104,0 155,0 258,53 54,51 104,104 157,155 0,53 51,157 51,261l0 674 -1401 0 -104 -51 0 0zm1143 -261l0 -258c0,-104 0,-157 0,-208 0,-53 -53,-53 -53,-104 -51,-53 -51,-53 -104,-53 -51,0 -104,0 -155,53 -53,51 -53,104 -53,259l0 311 365 0zm258 -1089l-1401 0 0 -1039 259 0 0 727 311 0 0 -676 261 0 0 676 363 0 0 -780 260 0 0 1039 -53 53 0 0zm0 -1612l-1142 0 0 416 -259 0 0 -1090 259 0 0 416 1142 0 0 258 0 0 0 0zm-674 -778c-157,0 -261,0 -365,-53 -50,-51 -154,-51 -207,-155 -51,-53 -104,-103 -104,-157 -51,-103 -51,-207 -51,-311 0,-208 51,-363 208,-520 104,-104 311,-207 519,-207 208,0 416,50 520,207 104,104 207,312 207,469 0,208 -53,362 -207,519 -104,104 -312,208 -520,208zm0 -311c155,0 259,-54 363,-104 104,-53 104,-157 104,-261 0,-104 -51,-208 -104,-259 -104,-53 -208,-106 -363,-106 -157,0 -261,53 -365,106 -103,51 -103,155 -103,259 0,104 53,208 103,261 104,50 208,104 365,104zm674 -1300l-1401 0 0 -261 570 0 0 -570 -570 0 0 -261 1401 0 0 261 -623 0 0 570 623 0 0 261zm-1401 -1247l0 -312 727 -311 -727 -261 0 -312 1039 469c104,51 208,104 258,155 54,53 104,103 104,207 0,104 0,157 0,208l-207 0c0,-51 0,-51 0,-104 0,-51 0,-104 -51,-155 0,-53 -53,-53 -157,-103l-986 519 0 0 0 0z"/>
  <path class="fil0" d="M2676 19534l0 -986 1143 0 0 -104 519 0 0 259 -312 0 0 884 312 0 0 259 -519 0 0 -104c-104,-51 -261,-104 -416,-104 -157,0 -365,-51 -623,-51l-157 0 53 -53 0 0zm258 -259c416,0 728,51 935,104l0 -519 -935 0 0 415 0 0zm-258 -1092l0 -985 1401 0 0 258 -1143 0 0 416 624 0c157,0 311,0 364,0 51,0 104,53 155,104 53,53 53,103 53,207 0,53 0,104 0,157l-208 0 0 -53c0,-51 0,-104 0,-104 0,0 -53,-50 -103,-50l-261 0 -778 0 -104 50zm1401 -2128l-570 0 0 51c0,103 0,157 51,207 53,53 104,104 261,208l311 208 0 365 -261 -157c-104,-51 -207,-104 -207,-155 -51,-53 -104,-104 -104,-157 0,157 -51,208 -155,261 -53,51 -157,104 -261,104 -104,0 -155,0 -208,-53 -51,-51 -104,-104 -154,-155 0,-53 -53,-157 -53,-312l0 -572 1403 0 0 261 -53 -104 0 0zm-1143 0l0 208c0,103 0,207 0,207 0,51 0,51 53,104 51,0 51,51 104,51 51,0 104,0 104,-51 51,0 51,-53 51,-104 0,-53 0,-104 0,-207l0 -208 -362 0 50 0zm-258 -1092l0 -573c0,-104 0,-208 0,-258 0,-54 51,-104 51,-157 53,-51 53,-104 103,-104 54,-51 104,-51 157,-51 51,0 104,0 155,51 53,53 104,104 104,157 0,-104 53,-157 104,-208 53,-53 157,-53 208,-53 53,0 104,0 207,53 54,51 104,51 157,104 51,51 51,104 51,208 0,50 0,154 0,362l0 469 -1401 0 104 0 0 0zm208 -261l311 0 0 -208c0,-104 0,-155 0,-208 0,-51 0,-104 -53,-104 -51,-50 -51,-50 -104,-50 -51,0 -104,0 -104,50 -50,0 -50,53 -50,104 0,53 0,104 0,261l0 155 0 0zm570 0l365 0 0 -259c0,-104 0,-157 0,-208 0,-53 -54,-53 -54,-103 -50,-54 -50,-54 -103,-54 -51,0 -51,0 -104,54 -51,0 -51,50 -51,103 0,51 0,104 0,259l0 208 -53 0zm623 -2286l0 312 -312 104 0 572 312 104 0 312 -1401 -520 0 -311 1401 -573 0 0zm-570 520l-520 207 520 208 0 -362 0 -53zm-831 -674l0 -261 1143 0 0 -416 -1143 0 0 -259 1143 0 0 -415 -1143 0 0 -261 1401 0 0 1662 -1401 0 0 -50 0 0zm727 -1924c-157,0 -261,0 -365,-50 -51,-54 -154,-54 -208,-157 -50,-51 -103,-104 -103,-155 -51,-104 -51,-208 -51,-312 0,-208 51,-365 208,-519 103,-104 311,-208 519,-208 208,0 416,51 519,208 104,104 208,311 208,466 0,208 -53,365 -208,520 -103,103 -311,207 -519,207zm0 -311c155,0 259,-51 362,-104 104,-51 104,-155 104,-259 0,-104 -50,-208 -104,-261 -103,-50 -207,-104 -362,-104 -157,0 -261,54 -365,104 -104,53 -104,157 -104,261 0,104 53,208 104,259 104,53 208,104 365,104zm-676 -1298l0 -935 260 0 0 674 1143 0 0 261 -1403 0zm727 -988c-155,0 -259,0 -363,-51 -53,-53 -157,-53 -207,-157 -54,-53 -104,-104 -104,-157 -53,-104 -53,-207 -53,-311 0,-208 53,-363 207,-520 104,-104 312,-208 520,-208 208,0 415,53 519,208 104,104 208,312 208,469 0,208 -51,362 -208,519 -104,104 -311,208 -519,208zm0 -312c157,0 261,-53 365,-103 103,-54 103,-157 103,-261 0,-104 -53,-208 -103,-259 -104,-53 -208,-104 -365,-104 -155,0 -259,51 -363,104 -104,51 -104,155 -104,259 0,104 51,207 104,261 104,50 208,103 363,103zm-674 -1923l0 -986 1142 0 0 -103 520 0 0 258 -312 0 0 884 312 0 0 259 -520 0 0 -104c-103,-51 -260,-104 -415,-104 -157,0 -365,-51 -624,-51l-156 0 53 -53 0 0zm258 -258c416,0 727,50 935,104l0 -520 -935 0 0 416 0 0zm469 -935c-157,0 -261,0 -365,-53 -51,-51 -155,-51 -208,-155 -51,-53 -104,-104 -104,-157 -50,-104 -50,-208 -50,-312 0,-208 50,-362 207,-519 104,-104 312,-208 520,-208 208,0 415,53 519,208 104,104 208,311 208,468 0,208 -53,363 -208,520 -104,104 -311,208 -519,208zm0 -312c155,0 258,-53 362,-104 104,-53 104,-157 104,-261 0,-104 -51,-208 -104,-258 -104,-53 -207,-104 -362,-104 -157,0 -261,51 -365,104 -104,50 -104,154 -104,258 0,104 53,208 104,261 104,51 208,104 365,104zm674 -1300l-1401 0 0 -415 935 -259 -935 -261 0 -415 1401 0 0 260 -1090 0 1090 259 0 261 -1090 259 1090 0 0 260 0 51zm-1401 -1505l0 -312 727 -311 -727 -261 0 -312 1039 469c103,50 207,104 258,154 53,53 104,104 104,208 0,104 0,157 0,208l-208 0c0,-51 0,-51 0,-104 0,-51 0,-104 -51,-155 0,-53 -53,-53 -157,-104l-985 520 0 0 0 0z"/>
 </g>
</svg>
